# xmcd CD database file
#
# Track frame offsets:
#	150
#	25552
#	53461
#	70320
#	83150
#	95478
#	115685
#	144777
#	163151
#	180000
#	202390
#	225496
#	240008
#
# Disc length: 3554 seconds
#
# Revision: 12
# Processed by: cddbd v1.5.2PL0 Copyright (c) Steve Scherf et al.
# Submitted via: CDex 1.70beta2
#
DISCID=920de00d
DTITLE=Van Morrison - Magic Time
DYEAR=2005
DGENRE=Blues
TTITLE0=Stranded
TTITLE1=Celtic New Year
TTITLE2=Keep Mediocrity At Bay
TTITLE3=Evening Train
TTITLE4=This Love Of Mine
TTITLE5=I'm Confessin'
TTITLE6=Just Like Greta
TTITLE7=Gypsy In My Soul
TTITLE8=Lonely And Blue
TTITLE9=The Lion This Time
TTITLE10=Magic Time
TTITLE11=They Sold Me Out
TTITLE12=Carry On Regardless
EXTD=YEAR: 2005
EXTT0=
EXTT1=
EXTT2=
EXTT3=
EXTT4=
EXTT5=
EXTT6=
EXTT7=
EXTT8=
EXTT9=
EXTT10=
EXTT11=
EXTT12=
PLAYORDER=
